<?xml version="1.0" encoding="UTF-8"?>
<svg width="40px" height="40px" viewBox="0 0 40 40" version="1.1" xmlns="http://www.w3.org/2000/svg" xmlns:xlink="http://www.w3.org/1999/xlink">
    <title>DisplayRefresh</title>
    <g id="DisplayRefresh" stroke="none" stroke-width="1" fill="none" fill-rule="evenodd">
        <rect fill="#14151D" x="0" y="0" width="40" height="40"></rect>
        <g id="Group" fill="#F4FF56">
            <circle id="Oval" opacity="0.100000001" cx="20" cy="20" r="20"></circle>
            <g id="power" transform="translate(9.999034, 10.000000)" fill-rule="nonzero">
                <path d="M6.00096562,5.1159077e-13 C6.51380145,5.1159077e-13 6.93647278,0.38604019 6.99423788,0.883378875 L7.00096562,1 L7.00096562,5 C7.00096562,5.55228475 6.55325037,6 6.00096562,6 C5.44868087,6 5.00096562,5.55228475 5.00096562,5 L5.00091091,3.75269553 C2.61162651,5.66399493 1.4827966,8.82305566 2.22702889,11.8868842 C3.09824549,15.4734771 6.31007583,17.9985231 10.0009656,17.9985231 C13.6918554,17.9985231 16.9036857,15.4734771 17.7749023,11.8868842 C18.6461189,8.30029123 16.9505625,4.58319569 13.6709656,2.89 C13.1794322,2.63594902 12.9869146,2.03153343 13.2409656,1.54 C13.4950166,1.04846657 14.0994322,0.855949015 14.5909656,1.11 C18.6893995,3.227407 20.8075818,7.87360347 19.7180543,12.3561812 C18.6285269,16.8387589 14.6140528,19.9943627 10.0009656,19.9943627 C5.38787848,19.9943627 1.37340435,16.8387589 0.283876888,12.3561812 C-0.671759484,8.42446356 0.840370529,4.36687019 3.99200033,2.00018961 L2.00096562,2 C1.44868087,2 1.00096562,1.55228475 1.00096562,1 C1.00096562,0.44771525 1.44868087,5.68434189e-14 2.00096562,5.68434189e-14 L6.00096562,5.1159077e-13 Z" id="Combined-Shape"></path>
            </g>
        </g>
    </g>
</svg>
