<?xml version="1.0" encoding="UTF-8"?>
<svg width="100px" height="100px" viewBox="0 0 100 100" version="1.1" xmlns="http://www.w3.org/2000/svg" xmlns:xlink="http://www.w3.org/1999/xlink">
    <!-- Generator: Sketch 60.1 (88133) - https://sketch.com -->
    <title>XLIV/Section/Settings</title>
    <desc>Created with Sketch.</desc>
    <defs>
        <linearGradient x1="50%" y1="0%" x2="50%" y2="100%" id="linearGradient-1">
            <stop stop-color="#596E9B" stop-opacity="0.25" offset="0.282411318%"></stop>
            <stop stop-color="#0D1424" stop-opacity="0.25" offset="100%"></stop>
        </linearGradient>
    </defs>
    <g id="XLIV/Section/Settings" stroke="none" stroke-width="1" fill="none" fill-rule="evenodd">
        <g id="Settings-icon" transform="translate(23.000000, 24.000000)" fill="url(#linearGradient-1)" stroke="#BBB9C4">
            <path d="M34.7690173,0.537309363 L32.4043336,1.42125867 L30.9682701,4.29033285 L29.9769719,4.80916281 L29.8270267,4.7935891 C28.2719305,4.63207262 26.7094733,4.63001335 25.1724634,4.78805861 L25.0236129,4.80336437 L24.0321098,4.2882998 L22.5983428,1.42381917 L20.2334975,0.537394144 L13.5731432,3.29549617 L12.5249334,5.59214658 L13.5385822,8.63002234 L13.2018539,9.69815531 L13.0855932,9.79273965 C11.8801287,10.7734499 10.7745833,11.8802571 9.79707283,13.0863662 L9.70180915,13.2039081 L8.63289929,13.5369404 L5.59277805,12.5236695 L3.29576416,13.5718323 L0.537173804,20.2320135 L1.41886283,22.5990478 L4.28790816,24.0348054 L4.80683502,25.0260874 L4.79122294,25.1761069 C4.63074844,26.7181375 4.62937524,28.2806769 4.78579918,29.8310376 L4.80077042,29.9794216 L4.28587496,30.970398 L1.42165478,32.4037436 L0.539979845,34.7707401 L3.29851912,41.4281509 L5.59571319,42.4763959 L8.63331336,41.4658061 L9.6986844,41.7989428 L9.79366309,41.9156646 C10.7699769,43.1154815 11.8760098,44.2193427 13.0881526,45.2042798 L13.2050763,45.2992871 L13.5383391,46.3648448 L12.5249475,49.4074719 L13.5757199,51.7044446 L20.2338639,54.4627276 L22.6011893,53.5786938 L24.0344277,50.712508 L25.02582,50.1936288 L25.1757652,50.2092025 C26.7239915,50.3700055 28.2865173,50.3706916 29.83321,50.2119322 L29.9832835,50.196528 L30.9712606,50.7156475 L32.4042176,53.5785099 L34.7687782,54.4599981 L41.42684,51.7017491 L42.4751646,49.4048469 L41.4644753,46.3675644 L41.7976461,45.3023007 L41.9143082,45.2073406 C43.1170744,44.2283174 44.2210552,43.1223892 45.2032755,41.9132045 L45.2983013,41.7962208 L46.3639668,41.462992 L49.4071505,42.4763631 L51.7042358,41.4281677 L54.4628262,34.7679865 L53.5811372,32.4009522 L50.7124892,30.9653935 L50.1931195,29.9771411 L50.2087771,29.8266847 C50.3692534,28.2846367 50.370626,26.7220792 50.214192,25.1688746 L50.1992517,25.0205357 L50.7142724,24.0293183 L53.5812537,22.5987349 L54.462812,20.2320515 L51.7042728,13.5746407 L49.407222,12.5264611 L46.3668304,13.5398221 L45.3013156,13.2066404 L45.2063369,13.0899186 C44.2300231,11.8901017 43.1239902,10.7862405 41.9118474,9.80130341 L41.794488,9.70594203 L41.4618404,8.63461627 L42.4751319,5.59228973 L41.42684,3.29545926 L34.7690173,0.537309363 Z M27.5,12.5 C35.7722153,12.5 42.5,19.2274084 42.5,27.5 C42.5,35.7725916 35.7722153,42.5 27.5,42.5 C19.2277847,42.5 12.5,35.7725916 12.5,27.5 C12.5,19.2274084 19.2277847,12.5 27.5,12.5 Z" id="Combined-Shape-Copy"></path>
        </g>
    </g>
</svg>