<?xml version="1.0" encoding="UTF-8"?>
<svg width="44px" height="44px" viewBox="0 0 44 44" version="1.1" xmlns="http://www.w3.org/2000/svg" xmlns:xlink="http://www.w3.org/1999/xlink">
    <!-- Generator: Sketch 60.1 (88133) - https://sketch.com -->
    <title>XLIV/Component/Icons/Configure-hover</title>
    <desc>Created with Sketch.</desc>
    <g id="XLIV/Component/Icons/Configure-hover" stroke="none" stroke-width="1" fill="none" fill-rule="evenodd">
        <g id="BTN-Configure">
            <rect id="Rectangle" fill="#09090A" x="0" y="0" width="44" height="44" rx="22"></rect>
            <path d="M24.9484,10 L27.9664,11.2504 L28.4872,12.3916 L28.0468,13.714 L28.15,14.0464 C28.6816,14.4784 29.1676,14.9632 29.5972,15.4912 L29.5972,15.4912 L29.9272,15.5944 L31.2484,15.154 L32.3896,15.6748 L33.64,18.6928 L33.202,19.8688 L31.9564,20.4904 L31.7968,20.7976 C31.8652,21.4768 31.8652,22.1632 31.7944,22.8436 L31.7944,22.8436 L31.9552,23.1496 L33.202,23.7736 L33.64,24.9496 L32.3896,27.9688 L31.2484,28.4896 L29.926,28.0492 L29.596,28.1524 C29.1652,28.6828 28.6804,29.1688 28.1512,29.5996 L28.1512,29.5996 L28.048,29.9296 L28.4872,31.2496 L27.9664,32.3908 L24.9484,33.6412 L23.7736,33.2032 L23.1508,31.9588 L22.8448,31.798 C22.1668,31.8676 21.4804,31.8676 20.7988,31.7968 L20.7988,31.7968 L20.4916,31.9576 L19.8688,33.2032 L18.6928,33.6424 L15.6748,32.392 L15.1528,31.2508 L15.5932,29.9284 L15.49,29.5984 C14.9584,29.1664 14.4724,28.6816 14.0428,28.1536 L14.0428,28.1536 L13.7128,28.0504 L12.3928,28.4896 L11.2516,27.9688 L10.0012,24.9508 L10.4392,23.7748 L11.6836,23.152 L11.8432,22.8448 C11.7748,22.1668 11.7748,21.4804 11.8456,20.8 L11.8456,20.8 L11.6848,20.4928 L10.438,19.8688 L10,18.6928 L11.2504,15.6736 L12.3916,15.1528 L13.7128,15.5932 L14.044,15.49 C14.4748,14.9584 14.9608,14.4724 15.4888,14.0428 L15.4888,14.0428 L15.5932,13.7116 L15.1528,12.3916 L15.6736,11.2504 L18.6928,10 L19.8676,10.4404 L20.4904,11.6848 L20.7976,11.8444 C21.4744,11.7748 22.1608,11.776 22.8424,11.8468 L22.8424,11.8468 L23.1496,11.686 L23.7736,10.4392 L24.9484,10 Z M21.8128,15.6676 C18.448,15.6676 15.7108,18.4 15.7108,21.76 C15.7108,25.12 18.448,27.8524 21.8128,27.8524 C25.1776,27.8524 27.9148,25.12 27.9148,21.76 C27.9148,18.4 25.1776,15.6676 21.8128,15.6676 Z" id="Combined-Shape" fill="#FFFFFF" fill-rule="nonzero"></path>
        </g>
    </g>
</svg>
