<?xml version="1.0" encoding="UTF-8"?>
<svg width="160px" height="120px" viewBox="0 0 160 120" version="1.1" xmlns="http://www.w3.org/2000/svg" xmlns:xlink="http://www.w3.org/1999/xlink">
    <!-- Generator: Sketch 60.1 (88133) - https://sketch.com -->
    <title>Builder-icon</title>
    <desc>Created with Sketch.</desc>
    <defs>
        <filter x="-26.8%" y="-37.7%" width="153.6%" height="175.5%" filterUnits="objectBoundingBox" id="filter-1">
            <feGaussianBlur stdDeviation="10" in="SourceGraphic"></feGaussianBlur>
        </filter>
        <linearGradient x1="50%" y1="0%" x2="50%" y2="100%" id="linearGradient-2">
            <stop stop-color="#596E9B" stop-opacity="0.25" offset="0.282411318%"></stop>
            <stop stop-color="#0D1424" stop-opacity="0.25" offset="100%"></stop>
        </linearGradient>
        <path d="M42.4279274,29.2161766 L48.5713324,49.8397258 C49.044341,51.4276265 48.1405424,53.0983237 46.5526416,53.5713324 C45.9938033,53.7378008 45.3985641,53.7378008 44.8397258,53.5713324 L24.2161766,47.4279274 C23.1575761,47.1125883 22.5550437,45.9987902 22.8703828,44.9401897 C22.965248,44.6217249 23.1379677,44.3319153 23.372935,44.0969481 L39.0969481,28.372935 C39.8779967,27.5918864 41.1443266,27.5918864 41.9253752,28.372935 C42.1603425,28.6079022 42.3330622,28.8977118 42.4279274,29.2161766 Z" id="path-3"></path>
        <filter x="-16.2%" y="-19.6%" width="133.5%" height="133.5%" filterUnits="objectBoundingBox" id="filter-4">
            <feOffset dx="0" dy="-1" in="SourceAlpha" result="shadowOffsetOuter1"></feOffset>
            <feGaussianBlur stdDeviation="2" in="shadowOffsetOuter1" result="shadowBlurOuter1"></feGaussianBlur>
            <feColorMatrix values="0 0 0 0 0.766889931   0 0 0 0 0.673901689   0 0 0 0 0.660226947  0 0 0 1 0" type="matrix" in="shadowBlurOuter1"></feColorMatrix>
        </filter>
    </defs>
    <g id="Builder-icon" stroke="none" stroke-width="1" fill="none" fill-rule="evenodd">
        <g transform="translate(14.000000, 10.000000)">
            <path d="M20,20 L105.057279,20 C106.561948,20 108.011694,20.5653465 109.119138,21.5839721 L120.061859,31.6490781 C121.297088,32.7852405 122,34.3868167 122,36.065106 L122,89.5123244 C122,95.0351719 117.522847,99.5123244 112,99.5123244 L20,99.5123244 C14.4771525,99.5123244 10,95.0351719 10,89.5123244 L10,30 C10,24.4771525 14.4771525,20 20,20 Z" id="Rectangle" fill-opacity="0.2" fill="#09090A" filter="url(#filter-1)"></path>
            <g id="Group-8" transform="translate(88.000000, 33.500000) scale(1, -1) translate(-88.000000, -33.500000) translate(44.000000, 5.000000)" fill="#0D1424" fill-opacity="0.25" stroke="#FFFFFF">
                <path d="M67.859467,30.8092158 L29.2105733,5.67928752 C19.1680804,0.712868502 9.84990243,-0.677985085 1.23940082,1.49045479 C30.2896272,19.5784858 50.1168747,31.9988856 60.7223364,38.7524158 L67.859467,30.8092158 Z" id="Path-2"></path>
                <path d="M73.5670776,29.7389577 C66.3873759,29.7389577 60.5670776,35.559256 60.5670776,42.7389577 C60.5670776,49.9186595 66.3873759,55.7389577 73.5670776,55.7389577 C80.7467794,55.7389577 86.5670776,49.9186595 86.5670776,42.7389577 C86.5670776,35.559256 80.7467794,29.7389577 73.5670776,29.7389577 Z M73.5670776,34.7389577 C77.9853556,34.7389577 81.5670776,38.3206797 81.5670776,42.7389577 C81.5670776,47.1572357 77.9853556,50.7389577 73.5670776,50.7389577 C69.1487996,50.7389577 65.5670776,47.1572357 65.5670776,42.7389577 C65.5670776,38.3206797 69.1487996,34.7389577 73.5670776,34.7389577 Z" id="Combined-Shape"></path>
            </g>
            <rect id="Rectangle" stroke="#FFFFFF" fill="url(#linearGradient-2)" x="0.5" y="0.5" width="75" height="76.2727273" rx="6"></rect>
            <g id="Rectangle-Copy-11" transform="translate(35.577259, 40.577259) scale(1, -1) rotate(-45.000000) translate(-35.577259, -40.577259) ">
                <use fill="black" fill-opacity="1" filter="url(#filter-4)" xlink:href="#path-3"></use>
                <use fill="#FFFFFF" fill-rule="evenodd" xlink:href="#path-3"></use>
            </g>
            <g id="Group-8" transform="translate(44.000000, 18.761042)">
                <path d="M67.859467,30.8092158 L29.2105733,5.67928752 C19.1680804,0.712868502 9.84990243,-0.677985085 1.23940082,1.49045479 C30.2896272,19.5784858 50.1168747,31.9988856 60.7223364,38.7524158 L67.859467,30.8092158 Z" id="Path-2" stroke="#FFFFFF" fill-opacity="0.25" fill="#0D1424"></path>
                <circle id="Oval" fill="#FFFFFF" cx="44" cy="21.2389577" r="2"></circle>
                <path d="M73.5670776,27.7389577 C66.3873759,27.7389577 60.5670776,33.559256 60.5670776,40.7389577 C60.5670776,47.9186595 66.3873759,53.7389577 73.5670776,53.7389577 C80.7467794,53.7389577 86.5670776,47.9186595 86.5670776,40.7389577 C86.5670776,33.559256 80.7467794,27.7389577 73.5670776,27.7389577 Z M73.5670776,32.7389577 C77.9853556,32.7389577 81.5670776,36.3206797 81.5670776,40.7389577 C81.5670776,45.1572357 77.9853556,48.7389577 73.5670776,48.7389577 C69.1487996,48.7389577 65.5670776,45.1572357 65.5670776,40.7389577 C65.5670776,36.3206797 69.1487996,32.7389577 73.5670776,32.7389577 Z" id="Combined-Shape-Copy-2" stroke="#FFFFFF" fill-opacity="0.25" fill="#0D1424"></path>
            </g>
        </g>
    </g>
</svg>