<?xml version="1.0" encoding="UTF-8"?>
<svg width="40px" height="40px" viewBox="0 0 40 40" version="1.1" xmlns="http://www.w3.org/2000/svg" xmlns:xlink="http://www.w3.org/1999/xlink">
    <title>DisplayRestart</title>
    <g id="DisplayRestart" stroke="none" stroke-width="1" fill="none" fill-rule="evenodd">
        <rect fill="#14151D" x="0" y="0" width="40" height="40"></rect>
        <g id="Group">
            <circle id="Oval" fill="#FF003E" opacity="0.100000001" cx="20" cy="20" r="20"></circle>
            <g id="power" transform="translate(9.999034, 9.000000)" fill="#961B39" fill-rule="nonzero">
                <path d="M14.5909656,2.11 C18.6893995,4.227407 20.8075818,8.87360347 19.7180543,13.3561812 C18.6285269,17.8387589 14.6140528,20.9943627 10.0009656,20.9943627 C7.82162678,20.9943627 5.77588975,20.2900773 4.10903971,19.0743146 L5.33602852,17.4976575 C6.6605728,18.4486613 8.27860848,18.9985231 10.0009656,18.9985231 C13.6918554,18.9985231 16.9036857,16.4734771 17.7749023,12.8868842 C18.6461189,9.30029123 16.9505625,5.58319569 13.6709656,3.89 C13.1794322,3.63594902 12.9869146,3.03153343 13.2409656,2.54 C13.4950166,2.04846657 14.0994322,1.85594902 14.5909656,2.11 Z M2.53562248,13.875225 C2.83593404,14.6558341 3.25220048,15.3721556 3.76133938,16.0060429 L2.14022865,17.1767893 C1.50856019,16.374299 0.994941299,15.4685941 0.62860779,14.4826556 L2.53562248,13.875225 Z M10.0009656,0 C10.5532504,0 11.0009656,0.44771525 11.0009656,1 L11.0009656,1 L11.0009656,11 C11.0009656,11.5522847 10.5532504,12 10.0009656,12 C9.44868087,12 9.00096562,11.5522847 9.00096562,11 L9.00096562,11 L9.00096562,1 C9.00096562,0.44771525 9.44868087,0 10.0009656,0 Z M0.151443963,9.26181999 L2.10541951,9.70608969 C1.98995963,10.4098639 1.96786748,11.1346092 2.04731785,11.8624044 L0.0463332129,11.9520946 C-0.0416059741,11.0430735 -0.00316800543,10.1388552 0.151443963,9.26181999 Z M2.48234044,4.39984251 L3.93902201,5.77706452 C3.47856654,6.31198651 3.09288919,6.90352253 2.78988861,7.53435662 L1.03380045,6.56827532 C1.41831218,5.78907133 1.90438203,5.05919039 2.48234044,4.39984251 Z M6.41172823,2.1566283 C6.71303592,2.34982418 6.88838693,2.68909026 6.87172824,3.04662831 C6.85506954,3.40416636 6.648932,3.72565783 6.33096562,3.89 C6.0095098,4.05596174 5.70327235,4.2413677 5.41317867,4.44418914 L4.32052079,2.76375774 C4.66623965,2.52543542 5.03004975,2.30679564 5.41096562,2.11 C5.72893199,1.94565782 6.11042055,1.96343243 6.41172823,2.1566283 Z" id="Combined-Shape"></path>
            </g>
        </g>
    </g>
</svg>